<svg width="56" height="42" viewBox="0 0 56 42" fill="none" xmlns="http://www.w3.org/2000/svg">
<ellipse cx="3.94105" cy="5.77906" rx="3.94105" ry="5.77906" transform="matrix(0.62258 0.782557 -0.635847 0.771815 20.72 26.8379)" fill="white"/>
<ellipse cx="3.94105" cy="5.77906" rx="3.94105" ry="5.77906" transform="matrix(0.62258 0.782557 -0.635847 0.771815 43.0044 26.8379)" fill="white"/>
<path d="M0 1.60568C0 0.718889 0.718889 0 1.60568 0H34.9464C38.3301 0 40.7368 3.29083 39.7112 6.51544L38.7193 9.6341H8.02843C3.59445 9.6341 0 6.03966 0 1.60568Z" fill="white"/>
<path d="M3.8999 13.8777C3.8999 13.0543 4.56744 12.3867 5.39089 12.3867H37.8837L35.4328 21.3327H11.3549C7.2376 21.3327 3.8999 17.995 3.8999 13.8777Z" fill="white"/>
<path fill-rule="evenodd" clip-rule="evenodd" d="M9.29055 24.0852C8.4671 24.0852 7.79956 24.7527 7.79956 25.5762C7.79956 29.2759 10.4946 32.3462 14.0286 32.9308C14.2609 30.6809 16.2292 28.6051 18.8571 28.0327C21.8872 27.3728 24.6468 28.9617 25.0208 31.5816C25.0902 32.0678 25.0725 32.5553 24.9784 33.0312H31.7554L34.2624 24.0852H9.29055Z" fill="white"/>
<path d="M41.2263 8.94592L33.9839 32.6871H36.7694C43.4548 23.053 47.1689 28.6729 48.1902 32.6871C52.87 34.3387 54.2256 27.4113 54.3185 23.7412C46.0732 24.0164 46.0546 17.8919 47.076 14.7952H55.9898C56.2127 10.9416 52.74 9.29 50.9758 8.94592H41.2263Z" fill="white"/>
</svg>
