<svg width="268" height="246" viewBox="0 0 268 246" fill="none" xmlns="http://www.w3.org/2000/svg">
<path d="M241.146 196.057H223.394V196.18H241.146V196.057Z" fill="#EBEBEB"/>
<path d="M177.534 197.395H172.876V197.518H177.534V197.395Z" fill="#EBEBEB"/>
<path d="M222.858 191.491H212.572V191.614H222.858V191.491Z" fill="#EBEBEB"/>
<path d="M51.2685 192.318H28.1187V192.441H51.2685V192.318Z" fill="#EBEBEB"/>
<path d="M59.4371 192.318H56.0442V192.441H59.4371V192.318Z" fill="#EBEBEB"/>
<path d="M120.68 194.394H70.468V194.517H120.68V194.394Z" fill="#EBEBEB"/>
<path d="M127.782 166.198H24.2808C23.4691 166.198 22.6906 165.902 22.1166 165.375C21.5427 164.848 21.2202 164.133 21.2202 163.388V29.8448C21.2273 29.104 21.5528 28.3957 22.1261 27.8742C22.6993 27.3526 23.4737 27.06 24.2808 27.0601H127.782C128.184 27.0601 128.582 27.1327 128.954 27.2739C129.325 27.4151 129.662 27.622 129.947 27.8829C130.231 28.1438 130.456 28.4535 130.61 28.7943C130.764 29.1351 130.843 29.5005 130.843 29.8694V163.388C130.843 163.757 130.764 164.123 130.61 164.463C130.456 164.804 130.231 165.114 129.947 165.375C129.662 165.636 129.325 165.843 128.954 165.984C128.582 166.125 128.184 166.198 127.782 166.198ZM24.2808 27.1585C23.505 27.1598 22.7615 27.4432 22.2129 27.9467C21.6644 28.4502 21.3556 29.1327 21.3542 29.8448V163.388C21.3556 164.1 21.6644 164.783 22.2129 165.286C22.7615 165.79 23.505 166.073 24.2808 166.075H127.782C128.558 166.073 129.302 165.79 129.85 165.286C130.399 164.783 130.708 164.1 130.709 163.388V29.8448C130.708 29.1327 130.399 28.4502 129.85 27.9467C129.302 27.4432 128.558 27.1598 127.782 27.1585H24.2808Z" fill="#EBEBEB"/>
<path d="M243.719 166.198H140.218C139.406 166.198 138.627 165.902 138.053 165.375C137.479 164.848 137.157 164.133 137.157 163.388V29.8448C137.164 29.104 137.49 28.3957 138.063 27.8742C138.636 27.3526 139.41 27.06 140.218 27.0601H243.719C244.531 27.0601 245.309 27.356 245.883 27.8829C246.457 28.4097 246.78 29.1243 246.78 29.8694V163.388C246.78 164.133 246.457 164.848 245.883 165.375C245.309 165.902 244.531 166.198 243.719 166.198ZM140.218 27.1585C139.442 27.1598 138.698 27.4432 138.15 27.9467C137.601 28.4502 137.292 29.1327 137.291 29.8448V163.388C137.292 164.1 137.601 164.783 138.15 165.286C138.698 165.79 139.442 166.073 140.218 166.075H243.719C244.495 166.073 245.238 165.79 245.787 165.286C246.335 164.783 246.644 164.1 246.646 163.388V29.8448C246.644 29.1327 246.335 28.4502 245.787 27.9467C245.238 27.4432 244.495 27.1598 243.719 27.1585H140.218Z" fill="#EBEBEB"/>
<path d="M268 188.141H0V188.264H268V188.141Z" fill="#EBEBEB"/>
<path d="M85.7815 56.8507H25.6101V187.949H85.7815V56.8507Z" fill="#E6E6E6"/>
<path d="M83.2247 59.2271H28.1721V187.949H83.2247V59.2271Z" fill="#F0F0F0"/>
<path d="M79.3548 76.2059H32.3369V123.349H79.3548V76.2059Z" fill="#FAFAFA"/>
<path d="M79.3548 137.603H32.3369V184.746H79.3548V137.603Z" fill="#E6E6E6"/>
<path d="M41.599 62.6415H70.0928C72.5446 62.648 74.8935 63.5466 76.6247 65.1403C78.3559 66.734 79.328 68.8927 79.328 71.1432V73.7656H32.3369V71.1432C32.3369 68.8884 33.3127 66.726 35.0497 65.1316C36.7867 63.5372 39.1425 62.6415 41.599 62.6415Z" fill="#FAFAFA"/>
<path d="M36.3516 125.47H32.3369V135.074H36.3516V125.47Z" fill="#E6E6E6"/>
<path d="M36.3515 135.074H37.1394V125.47H36.3515V135.074Z" fill="#E0E0E0"/>
<path d="M35.0223 129.244C35.0223 129.551 34.9228 129.852 34.7365 130.108C34.5501 130.364 34.2853 130.563 33.9755 130.68C33.6656 130.798 33.3248 130.828 32.9961 130.768C32.6674 130.708 32.3656 130.559 32.129 130.341C31.8923 130.123 31.7314 129.846 31.6667 129.544C31.6019 129.242 31.6362 128.929 31.7652 128.645C31.8943 128.361 32.1122 128.119 32.3914 127.948C32.6707 127.778 32.9987 127.688 33.3339 127.689C33.7822 127.69 34.2116 127.855 34.5281 128.146C34.8446 128.437 35.0223 128.832 35.0223 129.244Z" fill="#E0E0E0"/>
<path d="M34.706 131.93H33.8323V133.873H34.706V131.93Z" fill="#E0E0E0"/>
<path d="M34.2021 129.243C34.2021 129.674 34.063 130.094 33.8025 130.452C33.5419 130.81 33.1716 131.089 32.7384 131.253C32.3052 131.418 31.8285 131.46 31.3688 131.376C30.9091 131.292 30.487 131.084 30.1559 130.779C29.8248 130.475 29.5995 130.087 29.5087 129.665C29.4179 129.243 29.4656 128.805 29.6457 128.408C29.8259 128.011 30.1304 127.671 30.5207 127.433C30.911 127.195 31.3696 127.068 31.8383 127.069C32.1494 127.068 32.4575 127.124 32.745 127.233C33.0325 127.342 33.2936 127.503 33.5133 127.705C33.733 127.907 33.9069 128.147 34.0252 128.411C34.1434 128.675 34.2035 128.958 34.2021 129.243Z" fill="#F5F5F5"/>
<path d="M48.8778 62.6415H46.187L43.6089 73.7656H46.2996L48.8778 62.6415Z" fill="#F5F5F5"/>
<path d="M78.7921 67.7141C78.3457 66.6459 77.6527 65.6791 76.7606 64.8801L74.7024 73.7656H77.3824L78.7921 67.7141Z" fill="#F5F5F5"/>
<path d="M73.2015 62.976C72.4047 62.7586 71.5779 62.6475 70.7466 62.6464H60.8252L58.2471 73.7705H70.6983L73.2015 62.976Z" fill="#F5F5F5"/>
<path d="M45.7369 76.2059H43.0462L32.3369 122.459V123.349H34.8186L45.7369 76.2059Z" fill="#F5F5F5"/>
<path d="M70.1357 76.2059H57.6844L46.7661 123.349H59.2174L70.1357 76.2059Z" fill="#F5F5F5"/>
<path d="M76.8088 76.2059H74.118L63.2051 123.349H65.8904L76.8088 76.2059Z" fill="#F5F5F5"/>
<path d="M226.487 36.1915H225.961V50.494H226.487V36.1915Z" fill="#E6E6E6"/>
<path d="M242.872 58.4447L226.224 49.2098L209.571 58.4447H242.872Z" fill="#E6E6E6"/>
<path d="M225.072 58.4447L226.224 49.2098L218.736 58.4447H225.072Z" fill="#FAFAFA"/>
<path d="M227.371 144.633H212.406C212.015 144.633 211.698 144.924 211.698 145.283V148.018C211.698 148.377 212.015 148.668 212.406 148.668H227.371C227.762 148.668 228.079 148.377 228.079 148.018V145.283C228.079 144.924 227.762 144.633 227.371 144.633Z" fill="#F5F5F5"/>
<path d="M227.371 154.641H212.406C212.015 154.641 211.698 154.931 211.698 155.29V158.026C211.698 158.384 212.015 158.675 212.406 158.675H227.371C227.762 158.675 228.079 158.384 228.079 158.026V155.29C228.079 154.931 227.762 154.641 227.371 154.641Z" fill="#F5F5F5"/>
<path d="M239.512 149.632H224.546C224.156 149.632 223.839 149.923 223.839 150.282V153.017C223.839 153.376 224.156 153.666 224.546 153.666H239.512C239.902 153.666 240.219 153.376 240.219 153.017V150.282C240.219 149.923 239.902 149.632 239.512 149.632Z" fill="#F0F0F0"/>
<path d="M200.652 111.049H216.147C216.538 111.049 216.855 110.759 216.855 110.4V107.532C216.855 107.173 216.538 106.882 216.147 106.882H200.652C200.261 106.882 199.944 107.173 199.944 107.532V110.4C199.944 110.759 200.261 111.049 200.652 111.049Z" fill="#F5F5F5"/>
<path d="M205.819 105.888H221.314C221.705 105.888 222.022 105.598 222.022 105.239V102.371C222.022 102.012 221.705 101.721 221.314 101.721H205.819C205.428 101.721 205.111 102.012 205.111 102.371V105.239C205.111 105.598 205.428 105.888 205.819 105.888Z" fill="#F5F5F5"/>
<path d="M188.115 105.888H203.61C204.001 105.888 204.318 105.598 204.318 105.239V102.371C204.318 102.012 204.001 101.721 203.61 101.721H188.115C187.724 101.721 187.407 102.012 187.407 102.371V105.239C187.407 105.598 187.724 105.888 188.115 105.888Z" fill="#F0F0F0"/>
<path d="M134 208.465C191.396 208.465 237.925 205.972 237.925 202.896C237.925 199.82 191.396 197.326 134 197.326C76.6038 197.326 30.075 199.82 30.075 202.896C30.075 205.972 76.6038 208.465 134 208.465Z" fill="#F5F5F5"/>
<path d="M123.8 36.1177H122.176V73.4457H123.8V36.1177Z" fill="#263238"/>
<path d="M125.429 36.1177H124.615V73.4457H125.429V36.1177Z" fill="#263238"/>
<path d="M127.874 36.1177H127.059V73.4457H127.874V36.1177Z" fill="#263238"/>
<path d="M132.746 36.1177H131.122V73.4457H132.746V36.1177Z" fill="#263238"/>
<path d="M135.19 36.1177H134.375V73.4457H135.19V36.1177Z" fill="#263238"/>
<path d="M138.443 36.1177H136.005V73.4457H138.443V36.1177Z" fill="#263238"/>
<path d="M140.882 36.1177H140.067V73.4457H140.882V36.1177Z" fill="#263238"/>
<path d="M142.512 36.1177H141.697V73.4457H142.512V36.1177Z" fill="#263238"/>
<path d="M146.575 36.1177H144.95V73.4457H146.575V36.1177Z" fill="#263238"/>
<path d="M150.637 36.1177H149.013V73.4457H150.637V36.1177Z" fill="#263238"/>
<path d="M153.896 36.1177H151.458V73.4457H153.896V36.1177Z" fill="#263238"/>
<path d="M156.335 36.1177H155.52V73.4457H156.335V36.1177Z" fill="#263238"/>
<path d="M159.583 36.1177H157.959V73.4457H159.583V36.1177Z" fill="#263238"/>
<path d="M163.651 36.1177H161.213V73.4457H163.651V36.1177Z" fill="#263238"/>
<path d="M165.281 36.1177H164.466V73.4457H165.281V36.1177Z" fill="#263238"/>
<path d="M169.344 36.1177H166.905V73.4457H169.344V36.1177Z" fill="#263238"/>
<path d="M171.783 36.1177H170.158V73.4457H171.783V36.1177Z" fill="#263238"/>
<path d="M175.041 36.1177H172.603V73.4457H175.041V36.1177Z" fill="#263238"/>
<path d="M176.671 36.1177H175.856V73.4457H176.671V36.1177Z" fill="#263238"/>
<path d="M179.919 36.1177H179.104V73.4457H179.919V36.1177Z" fill="#263238"/>
<path d="M182.358 36.1177H180.734V73.4457H182.358V36.1177Z" fill="#263238"/>
<path d="M186.426 36.1177H184.802V73.4457H186.426V36.1177Z" fill="#263238"/>
<path d="M189.68 36.1177H188.865V73.4457H189.68V36.1177Z" fill="#263238"/>
<path d="M192.933 36.1177H192.118V73.4457H192.933V36.1177Z" fill="#263238"/>
<path d="M195.372 36.1177H193.748V73.4457H195.372V36.1177Z" fill="#263238"/>
<path d="M200.25 36.1177H197.811V73.4457H200.25V36.1177Z" fill="#263238"/>
<path d="M201.879 36.1177H201.064V73.4457H201.879V36.1177Z" fill="#263238"/>
<path d="M204.318 36.1177H202.694V73.4457H204.318V36.1177Z" fill="#263238"/>
<path d="M155.188 78.907C155.188 79.6105 154.609 80.2206 153.387 80.2206C152.774 80.2292 152.175 80.0567 151.677 79.7286L152.042 79.1234C152.423 79.3952 152.893 79.5409 153.376 79.5367C153.982 79.5367 154.336 79.2907 154.336 78.902C154.336 78.5134 154.036 78.2821 153.35 78.2821H152.931V77.7508L153.966 76.6241H151.897V75.9697H155V76.4912L153.896 77.6966C154.068 77.6979 154.237 77.7303 154.395 77.7919C154.553 77.8535 154.696 77.943 154.816 78.0555C154.936 78.168 155.031 78.3011 155.095 78.4472C155.158 78.5933 155.19 78.7496 155.188 78.907Z" fill="#263238"/>
<path d="M159.042 79.2119H156.764L156.314 80.1959H155.44L157.487 76.0139H158.318L160.376 80.1959H159.492L159.042 79.2119ZM158.763 78.6018L157.906 76.7519L157.048 78.5822L158.763 78.6018Z" fill="#263238"/>
<path d="M163.946 78.8774C163.946 79.6105 163.367 80.2206 162.145 80.2206C161.533 80.2299 160.933 80.0573 160.436 79.7286L160.795 79.1234C161.178 79.3963 161.65 79.542 162.135 79.5367C162.735 79.5367 163.094 79.2907 163.094 78.8971C163.094 78.5035 162.815 78.2477 161.872 78.2477H160.8L161.036 75.9697H163.716V76.6241H161.759L161.663 77.6081H162.097C163.405 77.5982 163.946 78.1345 163.946 78.8774Z" fill="#263238"/>
<path d="M168.074 78.8627C168.069 79.0548 168.022 79.2441 167.934 79.4185C167.847 79.593 167.72 79.7489 167.564 79.8765C167.407 80.004 167.224 80.1005 167.024 80.1597C166.825 80.2189 166.615 80.2396 166.407 80.2206C165.163 80.2206 164.434 79.4875 164.434 78.1443C164.434 76.7126 165.345 75.9205 166.669 75.9205C167.087 75.9098 167.5 76.0033 167.864 76.1911L167.554 76.7766C167.292 76.6337 166.99 76.5636 166.685 76.5749C165.828 76.5749 165.286 77.0669 165.286 78.0115C165.443 77.8632 165.633 77.7478 165.843 77.6731C166.053 77.5984 166.278 77.5661 166.503 77.5785C166.7 77.5601 166.899 77.5794 167.087 77.6353C167.275 77.6912 167.449 77.7825 167.596 77.9033C167.744 78.024 167.863 78.1717 167.945 78.3369C168.027 78.502 168.071 78.6811 168.074 78.8627ZM167.253 78.902C167.253 78.4641 166.894 78.1886 166.342 78.1886C166.23 78.1763 166.115 78.1855 166.007 78.2156C165.898 78.2457 165.797 78.296 165.711 78.3634C165.624 78.4308 165.554 78.5139 165.504 78.6074C165.454 78.7009 165.425 78.8029 165.42 78.9069C165.42 79.3005 165.758 79.6105 166.364 79.6105C166.472 79.6207 166.582 79.6101 166.686 79.5793C166.79 79.5485 166.886 79.4982 166.968 79.4316C167.049 79.365 167.115 79.2835 167.16 79.1923C167.206 79.1012 167.23 79.0023 167.232 78.902H167.253Z" fill="#263238"/>
<path d="M171.916 75.9795V76.501L170.148 80.1615H169.242L170.952 76.6388H169.167V77.3473H168.379V75.9795H171.916Z" fill="#263238"/>
<path d="M176.81 79.025C176.81 79.7433 176.199 80.1615 175.025 80.1615H172.763V75.9795H174.907C175.979 75.9795 176.585 76.4075 176.585 77.0668C176.594 77.2555 176.544 77.4425 176.44 77.6057C176.337 77.7688 176.184 77.9011 176.001 77.9869C176.243 78.0509 176.455 78.1882 176.602 78.3767C176.749 78.5651 176.822 78.7935 176.81 79.025ZM173.594 76.565V77.7359H174.79C175.374 77.7359 175.706 77.549 175.706 77.1652C175.706 76.7815 175.374 76.5847 174.79 76.5847L173.594 76.565ZM175.942 78.9217C175.942 78.5084 175.599 78.3214 174.961 78.3214H173.61V79.5268H174.977C175.615 79.5514 175.958 79.3645 175.958 78.9463L175.942 78.9217Z" fill="#263238"/>
<path d="M127.279 201.238L122.873 201.007L122.219 191.58L126.619 191.816L127.279 201.238Z" fill="#CE7A63"/>
<path d="M127.825 198.832H122.465C122.378 198.832 122.294 198.86 122.225 198.91C122.157 198.96 122.11 199.029 122.09 199.107L121.179 202.704C121.157 202.791 121.157 202.882 121.179 202.969C121.201 203.056 121.244 203.138 121.306 203.207C121.367 203.276 121.445 203.332 121.534 203.369C121.623 203.406 121.719 203.425 121.817 203.422C123.548 203.422 124.808 203.304 126.989 203.304C128.329 203.304 132.349 203.432 134.22 203.432C136.091 203.432 136.332 201.754 135.576 201.602C132.183 200.918 129.632 199.978 128.554 199.078C128.353 198.915 128.093 198.827 127.825 198.832Z" fill="#263238"/>
<path opacity="0.2" d="M126.619 191.821L122.213 191.585L122.556 196.441L126.962 196.48L126.619 191.821Z" fill="black"/>
<path d="M128.104 199.393C128.084 199.388 128.065 199.378 128.051 199.364C128.037 199.35 128.027 199.333 128.024 199.314C128.022 199.295 128.026 199.275 128.035 199.258C128.045 199.24 128.059 199.226 128.077 199.216C128.238 199.127 129.685 198.325 130.152 198.551C130.205 198.579 130.25 198.619 130.281 198.667C130.312 198.715 130.329 198.771 130.329 198.827C130.336 198.919 130.319 199.011 130.281 199.097C130.243 199.182 130.184 199.258 130.109 199.319C129.857 199.471 129.557 199.542 129.257 199.521C128.868 199.518 128.482 199.475 128.104 199.393ZM128.41 199.26C128.923 199.417 129.482 199.391 129.975 199.186C130.029 199.143 130.07 199.089 130.095 199.028C130.12 198.967 130.129 198.901 130.119 198.837C130.121 198.814 130.116 198.792 130.105 198.772C130.093 198.752 130.076 198.735 130.055 198.724C130.013 198.706 129.967 198.698 129.921 198.699C129.39 198.797 128.884 198.987 128.431 199.26H128.41Z" fill="#132E25"/>
<path d="M128.104 199.378C128.088 199.368 128.075 199.355 128.067 199.34C128.059 199.324 128.055 199.307 128.056 199.289C128.056 199.24 128.179 198.074 128.699 197.69C128.76 197.643 128.831 197.607 128.907 197.586C128.984 197.565 129.065 197.558 129.144 197.567C129.222 197.568 129.296 197.594 129.356 197.64C129.416 197.685 129.456 197.748 129.471 197.818C129.562 198.271 128.667 199.157 128.211 199.383C128.196 199.387 128.179 199.387 128.163 199.383C128.143 199.386 128.123 199.385 128.104 199.378ZM128.828 197.838C128.515 198.202 128.328 198.645 128.292 199.107C128.753 198.793 129.321 198.123 129.267 197.853C129.267 197.828 129.267 197.774 129.117 197.759H129.069C128.977 197.757 128.888 197.785 128.817 197.838H128.828Z" fill="#132E25"/>
<path d="M104.445 201.577L100.162 200.618L101.368 191.24L105.651 192.2L104.445 201.577Z" fill="#CE7A63"/>
<path d="M105.024 198.832H99.664C99.576 198.832 99.4906 198.859 99.4216 198.909C99.3526 198.959 99.3039 199.029 99.2834 199.107L98.3561 202.704C98.3351 202.791 98.3358 202.881 98.3582 202.968C98.3806 203.055 98.4241 203.136 98.4855 203.205C98.5468 203.274 98.6245 203.33 98.7125 203.367C98.8006 203.405 98.8968 203.424 98.994 203.422C100.725 203.422 101.99 203.304 104.166 203.304C105.506 203.304 109.526 203.432 111.397 203.432C113.268 203.432 113.509 201.754 112.753 201.602C109.36 200.918 106.814 199.978 105.737 199.078C105.54 198.919 105.286 198.831 105.024 198.832Z" fill="#263238"/>
<path opacity="0.2" d="M105.651 192.205L101.368 191.245L100.672 196.642H105.094L105.651 192.205Z" fill="black"/>
<path d="M105.319 199.393C105.299 199.388 105.282 199.378 105.268 199.364C105.255 199.35 105.246 199.333 105.244 199.314C105.24 199.295 105.243 199.276 105.252 199.258C105.26 199.241 105.274 199.226 105.292 199.216C105.453 199.127 106.9 198.325 107.372 198.551C107.425 198.578 107.47 198.618 107.5 198.667C107.531 198.715 107.546 198.771 107.543 198.827C107.552 198.919 107.537 199.012 107.499 199.098C107.461 199.183 107.4 199.259 107.323 199.319C107.072 199.471 106.772 199.542 106.471 199.521C106.083 199.518 105.696 199.475 105.319 199.393ZM105.624 199.26C106.137 199.417 106.697 199.391 107.189 199.186C107.243 199.143 107.285 199.089 107.31 199.028C107.335 198.967 107.343 198.901 107.334 198.837C107.334 198.763 107.302 198.738 107.27 198.724C107.228 198.706 107.182 198.698 107.136 198.699C106.597 198.794 106.084 198.985 105.624 199.26Z" fill="#132E25"/>
<path d="M105.287 199.378C105.271 199.369 105.258 199.355 105.251 199.34C105.243 199.324 105.241 199.306 105.244 199.289C105.244 199.24 105.367 198.074 105.882 197.69C105.942 197.643 106.013 197.607 106.09 197.586C106.166 197.565 106.247 197.558 106.326 197.567C106.405 197.567 106.481 197.592 106.542 197.638C106.602 197.684 106.644 197.748 106.659 197.818C106.744 198.271 105.855 199.157 105.394 199.383C105.378 199.387 105.361 199.387 105.346 199.383C105.326 199.386 105.305 199.385 105.287 199.378ZM106.01 197.838C105.697 198.202 105.51 198.644 105.474 199.107C105.93 198.793 106.498 198.123 106.444 197.853C106.444 197.828 106.444 197.774 106.294 197.759H106.246C106.16 197.761 106.077 197.788 106.01 197.838Z" fill="#132E25"/>
<path d="M117.743 80.565C118.659 80.5572 119.544 80.868 120.22 81.4348C120.896 82.0017 121.314 82.7825 121.388 83.6203C121.474 84.5354 121.554 85.3866 121.602 85.726C121.822 87.4825 123.586 94.6854 123.923 96.4369L124.395 98.8329C124.433 99.0002 128.881 98.6361 128.881 98.6361L130.602 100.486C130.243 100.872 129.86 101.238 129.455 101.583C129.054 101.938 128.625 102.267 128.174 102.567C127.698 102.894 127.193 103.182 126.662 103.428C126.04 103.725 125.371 103.929 124.679 104.033C124.238 104.091 123.791 104.091 123.35 104.033C122.815 103.959 122.3 103.792 121.833 103.541C121.364 103.286 120.952 102.952 120.616 102.557C120.217 102.07 119.914 101.522 119.721 100.939L119.651 100.727L119.603 100.56L119.394 99.876C119.249 99.4184 119.121 98.9608 118.998 98.4984C118.504 96.6583 116.602 88.2156 116.317 86.3312C116.173 85.3915 116.039 84.4419 115.953 83.4924C115.91 83.0004 115.873 82.5084 115.84 82.0508C115.808 81.5932 115.792 81.1062 115.787 80.5453L117.743 80.565Z" fill="#132E25"/>
<path opacity="0.6" d="M117.743 80.565C118.659 80.5572 119.544 80.868 120.22 81.4348C120.896 82.0017 121.314 82.7825 121.388 83.6203C121.474 84.5354 121.554 85.3866 121.602 85.726C121.822 87.4825 123.586 94.6854 123.923 96.4369L124.395 98.8329C124.433 99.0002 128.881 98.6361 128.881 98.6361L130.602 100.486C130.243 100.872 129.86 101.238 129.455 101.583C129.054 101.938 128.625 102.267 128.174 102.567C127.698 102.894 127.193 103.182 126.662 103.428C126.04 103.725 125.371 103.929 124.679 104.033C124.238 104.091 123.791 104.091 123.35 104.033C122.815 103.959 122.3 103.792 121.833 103.541C121.364 103.286 120.952 102.952 120.616 102.557C120.217 102.07 119.914 101.522 119.721 100.939L119.651 100.727L119.603 100.56L119.394 99.876C119.249 99.4184 119.121 98.9608 118.998 98.4984C118.504 96.6583 116.602 88.2156 116.317 86.3312C116.173 85.3915 116.039 84.4419 115.953 83.4924C115.91 83.0004 115.873 82.5084 115.84 82.0508C115.808 81.5932 115.792 81.1062 115.787 80.5453L117.743 80.565Z" fill="white"/>
<path d="M127.295 98.7345C127.295 98.7345 126.276 101.091 128.801 102.1L131.009 101.017L129.712 98.3999L127.295 98.7345Z" fill="#132E25"/>
<path opacity="0.8" d="M127.295 98.7345C127.295 98.7345 126.276 101.091 128.801 102.1L131.009 101.017L129.712 98.3999L127.295 98.7345Z" fill="white"/>
<path d="M129.535 98.5132L131.728 96.7715L133.829 100.147C132.868 100.604 131.832 100.913 130.763 101.062C129.894 101.145 129.535 100.437 129.257 99.7727C129.173 99.5594 129.155 99.3292 129.204 99.1072C129.253 98.8851 129.368 98.6797 129.535 98.5132Z" fill="#CE7A63"/>
<path d="M134.665 96.6731L136.262 98.6608L133.829 100.147L131.728 96.7715L134.665 96.6731Z" fill="#CE7A63"/>
<path opacity="0.1" d="M124.395 98.8329L121.565 99.4134C121.565 99.4134 123.21 99.1625 123.629 95.8661C123.629 95.6939 123.629 95.138 123.687 95.3249C124.084 97.2585 124.395 98.8329 124.395 98.8329Z" fill="black"/>
<path d="M137.634 86.3755H124.25V98.6607H137.634V86.3755Z" fill="#263238"/>
<path opacity="0.7" d="M137.634 86.3755H124.25V98.6607H137.634V86.3755Z" fill="white"/>
<path d="M137.634 98.6656H143.6V86.3804H137.634V98.6656Z" fill="#263238"/>
<path opacity="0.6" d="M137.634 98.6656H143.6V86.3804H137.634V98.6656Z" fill="white"/>
<path opacity="0.7" d="M130.559 94.5377H124.899V97.9719H130.559V94.5377Z" fill="white"/>
<path d="M126.459 95.2758H126.051V97.229H126.459V95.2758Z" fill="#263238"/>
<path d="M126.979 95.2758H126.775V97.229H126.979V95.2758Z" fill="#263238"/>
<path d="M127.745 95.2758H127.182V97.229H127.745V95.2758Z" fill="#263238"/>
<path d="M128.217 95.2758H128.013V97.229H128.217V95.2758Z" fill="#263238"/>
<path d="M128.737 95.2758H128.533V97.229H128.737V95.2758Z" fill="#263238"/>
<path d="M129.407 95.2758H128.999V97.229H129.407V95.2758Z" fill="#263238"/>
<path d="M144.281 84.2648H138.315V86.9954H144.281V84.2648Z" fill="#263238"/>
<path opacity="0.4" d="M144.281 84.2648H138.315V86.9954H144.281V84.2648Z" fill="white"/>
<path d="M138.315 84.2648H123.57V86.9954H138.315V84.2648Z" fill="#263238"/>
<path opacity="0.5" d="M138.315 84.2648H123.57V86.9954H138.315V84.2648Z" fill="white"/>
<path d="M142.239 84.2648H140.352V88.245H142.239V84.2648Z" fill="#132E25"/>
<path d="M142.239 94.6804H140.352V98.6607H142.239V94.6804Z" fill="#132E25"/>
<g opacity="0.3">
<path d="M142.239 84.2648H140.352V88.245H142.239V84.2648Z" fill="white"/>
<path d="M142.239 94.6804H140.352V98.6607H142.239V94.6804Z" fill="white"/>
</g>
<path d="M106.589 112.043L116.848 157.765L121.227 195.501L128.195 195.245C128.195 195.245 128.603 175.875 126.555 155.629C124.711 137.352 121.195 117.253 120.418 111.177L116.891 108.132L111.74 108.904L106.589 112.043Z" fill="#263238"/>
<path d="M99.3852 112.142L101.331 162.089L99.3369 195.383L107.297 195.737C107.297 195.737 109.896 179.89 111.22 160.992C112.549 141.937 112.603 121.18 112.925 114.661L109.832 109.795H104.82L99.3852 112.142Z" fill="#263238"/>
<path d="M120.091 105.352C119.844 103.65 119.801 101.987 119.737 100.393C119.089 84.5551 119.067 84.2156 118.804 81.4506C118.78 81.2094 118.679 80.9802 118.513 80.7919C118.347 80.6036 118.124 80.4647 117.872 80.3928C107.302 77.1308 102.992 78.7249 95.408 80.4764C95.1184 80.558 94.8698 80.7314 94.7068 80.9658C94.5438 81.2002 94.477 81.4802 94.5183 81.7556C95.0543 86.405 96.6623 97.7801 97.0268 105.372C97.0804 106.484 97.0589 109.16 97.0268 110.641C97.0224 110.931 97.1313 111.213 97.3338 111.436C97.5363 111.659 97.8191 111.808 98.1309 111.856C100.811 112.269 107.538 113.057 109.591 110.872C109.816 110.641 110.131 110.5 110.468 110.478C110.805 110.456 111.138 110.555 111.397 110.754C112.238 111.384 113.611 111.95 115.803 111.807C117.888 111.674 119.26 111.507 120.134 111.369C120.316 111.342 120.49 111.281 120.645 111.189C120.8 111.097 120.932 110.976 121.033 110.834C121.133 110.692 121.201 110.533 121.231 110.366C121.261 110.198 121.252 110.027 121.206 109.864C120.82 108.486 120.236 106.331 120.091 105.352Z" fill="#132E25"/>
<path d="M110.759 79.0496L107.843 80.811L105.121 80.9192L103.513 79.6351C103.57 78.1355 103.486 76.6342 103.261 75.148C103.147 74.1359 102.884 73.1427 102.478 72.196H102.757L105.437 72.2452L108.422 72.2994C108.422 72.2994 108.304 73.3178 108.304 74.5773C108.301 75.2019 108.336 75.8262 108.412 76.4469C108.469 77.0303 108.61 77.6043 108.83 78.1542C109.275 79.1234 110.695 79.0447 110.759 79.0496Z" fill="#CE7A63"/>
<path d="M111.22 78.7888C111.22 79.1283 110.834 87.8121 110.052 100.146L102.199 78.8823L102.585 78.8085L107.029 80.8306H108.374L110.882 78.7297H110.92L111.22 78.7888Z" fill="#132E25"/>
<path opacity="0.5" d="M111.22 78.7888C111.22 79.1283 110.834 87.8121 110.052 100.146L102.199 78.8823L102.585 78.8085L107.029 80.8306H108.374L110.882 78.7297H110.92L111.22 78.7888Z" fill="white"/>
<path d="M103.228 78.6757L107.918 80.8405L105.951 83.2316L102.194 78.8872L103.228 78.6757Z" fill="#132E25"/>
<path d="M111.22 78.779V78.7888L109.666 83.2365L107.806 80.9782L107.693 80.8405L107.768 80.7716L110.266 78.6412L110.872 78.7298L110.909 78.7347L111.22 78.779Z" fill="#132E25"/>
<g opacity="0.8">
<path d="M103.228 78.6757L107.918 80.8405L105.951 83.2316L102.194 78.8872L103.228 78.6757Z" fill="white"/>
</g>
<g opacity="0.8">
<path d="M111.22 78.779V78.7888L109.666 83.2365L107.806 80.9782L107.693 80.8405L107.768 80.7716L110.266 78.6412L110.872 78.7298L110.909 78.7347L111.22 78.779Z" fill="white"/>
</g>
<path d="M108.454 84.56C108.461 84.657 108.435 84.7536 108.382 84.8375C108.328 84.9214 108.249 84.9888 108.153 85.0312C108.058 85.0737 107.951 85.0892 107.846 85.076C107.741 85.0627 107.643 85.0212 107.564 84.9567C107.484 84.8922 107.428 84.8075 107.401 84.7135C107.374 84.6194 107.378 84.5202 107.413 84.4283C107.447 84.3363 107.51 84.2559 107.595 84.197C107.679 84.1381 107.781 84.1035 107.886 84.0975C107.957 84.0935 108.027 84.1023 108.094 84.1234C108.161 84.1445 108.222 84.1775 108.275 84.2204C108.328 84.2634 108.371 84.3155 108.402 84.3738C108.432 84.4321 108.45 84.4953 108.454 84.56Z" fill="white"/>
<path d="M109.398 91.0593C109.398 91.1848 109.346 91.3057 109.252 91.3971C109.159 91.4886 109.03 91.5437 108.894 91.5513C108.823 91.5553 108.753 91.5465 108.686 91.5254C108.619 91.5043 108.558 91.4713 108.505 91.4283C108.452 91.3853 108.409 91.3332 108.379 91.275C108.348 91.2167 108.33 91.1534 108.326 91.0888C108.318 90.9591 108.367 90.8319 108.462 90.7352C108.556 90.6384 108.688 90.5798 108.83 90.5722C108.902 90.5682 108.975 90.5778 109.043 90.6004C109.112 90.623 109.174 90.6582 109.228 90.7037C109.281 90.7493 109.323 90.8043 109.352 90.8654C109.382 90.9266 109.397 90.9925 109.398 91.0593Z" fill="white"/>
<path opacity="0.2" d="M108.444 76.4567C107.294 76.2777 106.186 75.9235 105.163 75.4088C104.525 75.0756 103.977 74.6131 103.563 74.0563C103.149 73.4995 102.879 72.8632 102.773 72.196C102.73 71.9635 102.708 71.7282 102.708 71.4924L105.469 72.2452L108.085 72.9586L108.336 74.5773C108.332 75.2051 108.368 75.8327 108.444 76.4567Z" fill="black"/>
<path d="M100.8 66.8087C101.224 70.4249 101.336 71.955 103.405 73.7262C106.546 76.3928 111.284 75.1235 112.046 71.4679C112.726 68.1813 111.912 62.8087 107.977 61.5541C107.111 61.2698 106.181 61.1933 105.274 61.3318C104.366 61.4704 103.513 61.8194 102.794 62.3458C102.075 62.8722 101.514 63.5585 101.165 64.3395C100.817 65.1206 100.691 65.9705 100.8 66.8087Z" fill="#CE7A63"/>
<path d="M107.248 67.6402C107.302 67.9304 107.511 68.1322 107.715 68.1322C107.918 68.1322 108.052 67.837 108.004 67.5467C107.956 67.2564 107.747 67.0547 107.538 67.0547C107.329 67.0547 107.2 67.3597 107.248 67.6402Z" fill="#263238"/>
<path d="M110.839 67.1382C110.888 67.4334 111.097 67.6302 111.306 67.6302C111.515 67.6302 111.643 67.335 111.595 67.0447C111.547 66.7545 111.333 66.5527 111.129 66.5527C110.925 66.5527 110.791 66.843 110.839 67.1382Z" fill="#263238"/>
<path d="M109.457 67.4778C109.97 68.3186 110.578 69.1084 111.268 69.8345C111.108 69.9462 110.925 70.0258 110.729 70.0682C110.533 70.1106 110.33 70.1148 110.132 70.0805L109.457 67.4778Z" fill="#BA4D3C"/>
<path d="M105.635 67.0448C105.675 67.0482 105.715 67.0394 105.749 67.0198C105.783 67.0003 105.809 66.971 105.823 66.9365C105.968 66.6881 106.168 66.4698 106.41 66.2954C106.651 66.121 106.929 65.9943 107.227 65.923C107.277 65.9125 107.32 65.8843 107.347 65.8447C107.374 65.805 107.383 65.7571 107.372 65.7115C107.359 65.6678 107.329 65.6303 107.287 65.6065C107.245 65.5827 107.195 65.5745 107.146 65.5835C106.788 65.6657 106.454 65.8176 106.165 66.029C105.876 66.2403 105.641 66.5062 105.474 66.8086C105.466 66.8299 105.462 66.8526 105.463 66.8753C105.464 66.898 105.47 66.9203 105.48 66.9408C105.491 66.9614 105.505 66.9799 105.524 66.9952C105.542 67.0105 105.563 67.0223 105.587 67.03C105.593 67.0354 105.601 67.0394 105.609 67.042C105.617 67.0445 105.626 67.0455 105.635 67.0448Z" fill="#263238"/>
<path d="M111.687 65.5983C111.72 65.6011 111.754 65.5952 111.784 65.5813C111.815 65.5674 111.84 65.546 111.858 65.5196C111.872 65.5006 111.882 65.4792 111.887 65.4567C111.891 65.4343 111.891 65.4111 111.886 65.3887C111.881 65.3662 111.872 65.3449 111.858 65.326C111.843 65.3071 111.825 65.2909 111.804 65.2785C111.556 65.1166 111.268 65.0135 110.966 64.9784C110.664 64.9432 110.358 64.977 110.073 65.0768C110.03 65.0932 109.995 65.1244 109.976 65.1638C109.957 65.2032 109.955 65.2478 109.971 65.2883C109.991 65.3288 110.028 65.3606 110.073 65.3771C110.117 65.3936 110.168 65.3935 110.213 65.3769C110.437 65.3063 110.676 65.2856 110.911 65.3164C111.146 65.3472 111.369 65.4286 111.563 65.554C111.597 65.5816 111.641 65.5973 111.687 65.5983Z" fill="#263238"/>
<path d="M109.274 71.3744C108.885 71.378 108.499 71.3097 108.139 71.1736C107.779 71.0376 107.452 70.8364 107.179 70.5822C107.161 70.5649 107.151 70.542 107.151 70.5183C107.151 70.4945 107.161 70.4716 107.179 70.4543C107.188 70.4457 107.199 70.4388 107.21 70.4341C107.222 70.4294 107.235 70.427 107.248 70.427C107.261 70.427 107.274 70.4294 107.286 70.4341C107.298 70.4388 107.309 70.4457 107.318 70.4543C107.618 70.7273 107.982 70.9333 108.383 71.0561C108.784 71.179 109.21 71.2155 109.628 71.1628C109.654 71.1611 109.68 71.1682 109.701 71.1827C109.721 71.1972 109.736 71.2181 109.741 71.2415C109.742 71.2535 109.741 71.2657 109.737 71.2773C109.733 71.2889 109.727 71.2996 109.718 71.3088C109.71 71.318 109.699 71.3256 109.688 71.3309C109.676 71.3362 109.663 71.3393 109.65 71.3399C109.525 71.358 109.4 71.3695 109.274 71.3744Z" fill="#263238"/>
<path d="M102.939 73.3079C102.063 72.1672 101.618 70.7949 101.671 69.4003C101.725 68.0056 102.273 66.6653 103.234 65.5835C104.359 64.2207 103.282 64.0534 103.282 64.0534C111.74 63.8173 111.322 61.3277 110.202 59.7632C109.884 59.3133 109.458 58.9367 108.956 58.6627C108.454 58.3888 107.89 58.2249 107.307 58.1839H107.264C106.812 58.1659 106.369 58.3097 106.029 58.5848C105.689 58.86 105.479 59.2453 105.442 59.6599V59.6894C105.442 59.6894 98.1417 58.6709 99.01 66.8185C99.3369 70.0263 102.939 73.3079 102.939 73.3079Z" fill="#263238"/>
<path d="M99.8676 69.6425C100.148 70.2804 100.691 70.7912 101.379 71.0644C102.301 71.4088 102.885 70.6807 102.73 69.8197C102.585 69.0472 101.937 67.9353 100.966 67.9353C100.628 67.9469 100.308 68.0804 100.076 68.307C99.8446 68.5336 99.7195 68.8349 99.7282 69.1456C99.7337 69.3187 99.7813 69.4885 99.8676 69.6425Z" fill="#CE7A63"/>
<path opacity="0.6" d="M117.861 89.2389L118.011 91.8908L113.241 92.1171L113.091 89.4652L115.208 89.3619C115.058 89.2684 115.069 89.0667 115.058 88.8699C115.058 88.5452 115.138 88.2992 115.417 88.2844C115.696 88.2696 115.803 88.5402 115.824 88.8649C115.824 89.0765 115.883 89.2438 115.744 89.3569L117.861 89.2389Z" fill="white"/>
<path d="M117.234 89.4935L113.701 89.6629C113.509 89.6721 113.361 89.8225 113.371 89.9989L113.456 91.4778C113.466 91.6542 113.63 91.7897 113.822 91.7805L117.354 91.6111C117.547 91.6019 117.694 91.4515 117.684 91.2751L117.6 89.7962C117.59 89.6198 117.426 89.4843 117.234 89.4935Z" fill="white"/>
<path d="M115.615 88.6387C115.615 88.6843 115.596 88.7281 115.56 88.7604C115.525 88.7927 115.477 88.8109 115.428 88.8109C115.378 88.8109 115.33 88.7927 115.295 88.7604C115.26 88.7281 115.24 88.6843 115.24 88.6387C115.239 88.5933 115.256 88.5491 115.289 88.5152C115.322 88.4814 115.368 88.4604 115.417 88.4566C115.443 88.4559 115.469 88.4602 115.494 88.4691C115.518 88.478 115.54 88.4914 115.559 88.5084C115.577 88.5255 115.592 88.5458 115.602 88.5682C115.611 88.5906 115.616 88.6146 115.615 88.6387Z" fill="#263238"/>
<path opacity="0.2" d="M96.7105 91.4283L96.4907 98.9215L95.3223 88.5059L96.7105 91.4283Z" fill="black"/>
<path d="M115.83 98.4098L115.454 103.891L116.13 104.338L112.431 104.884L113.948 98.3015L115.83 98.4098Z" fill="white"/>
<path opacity="0.5" d="M113.948 98.3015L115.83 98.4098L115.765 99.3544C115.077 99.4251 114.384 99.4514 113.691 99.4331L113.948 98.3015Z" fill="black"/>
<path d="M115.856 95.3151C117.217 95.1651 118.587 95.1092 119.957 95.1478L120.461 98.0162C119.143 98.3307 117.804 98.5609 116.451 98.705C113.412 99.1527 110.813 98.7591 110.652 97.8243C110.491 96.8895 112.817 95.7678 115.856 95.3151Z" fill="#263238"/>
<path d="M115.856 95.3151C117.217 95.1651 118.587 95.1092 119.957 95.1478L120.461 98.0162C119.143 98.3307 117.804 98.5609 116.451 98.705C113.412 99.1527 110.813 98.7591 110.652 97.8243C110.491 96.8895 112.817 95.7678 115.856 95.3151Z" fill="white"/>
<path d="M119.453 95.1379C119.625 95.1379 119.796 95.1379 119.957 95.1379L120.461 98.0063C120.311 98.0604 120.15 98.1096 119.984 98.1588L119.453 95.1379Z" fill="#263238"/>
<path d="M109.751 100.821C109.751 100.821 112.18 100.225 113.273 99.9349C116.339 99.133 116.457 100.501 116.532 100.968C116.629 101.406 116.578 101.861 116.387 102.273C116.195 102.684 115.872 103.032 115.46 103.271C114.506 103.832 109.778 103.167 109.778 103.167L109.751 100.821Z" fill="#CE7A63"/>
<path d="M106.621 100.811C107.806 100.478 109.044 100.332 110.282 100.378C110.282 100.378 109.478 102.262 110.679 103.659L106.975 104.102L106.621 100.811Z" fill="#132E25"/>
<path opacity="0.8" d="M106.621 100.811C107.806 100.478 109.044 100.332 110.282 100.378C110.282 100.378 109.478 102.262 110.679 103.659L106.975 104.102L106.621 100.811Z" fill="white"/>
<path d="M95.4563 80.688C95.4563 80.688 90.2303 80.688 90.4072 96.678C90.5251 107.197 94.513 105.283 99.6318 104.983L108.642 104.211C108.642 104.211 107.715 101.947 108.481 100.132C108.481 100.132 104.043 100.934 96.7803 100.132C96.7803 100.132 95.7511 92.3139 96.6463 90.7248C96.6463 90.7395 97.7611 83.64 95.4563 80.688Z" fill="#132E25"/>
<path opacity="0.6" d="M95.4563 80.688C95.4563 80.688 90.2303 80.688 90.4072 96.678C90.5251 107.197 94.513 105.283 99.6318 104.983L108.642 104.211C108.642 104.211 107.715 101.947 108.481 100.132C108.481 100.132 104.043 100.934 96.7803 100.132C96.7803 100.132 95.7511 92.3139 96.6463 90.7248C96.6463 90.7395 97.7611 83.64 95.4563 80.688Z" fill="white"/>
<path opacity="0.1" d="M114.313 147.329L112.925 125.066L111.526 136.195L114.313 147.329Z" fill="black"/>
<path d="M205.926 132.481H87.9578V203.58H205.926V132.481Z" fill="#132E25"/>
<g opacity="0.4">
<path d="M205.926 132.481H87.9578V203.58H205.926V132.481Z" fill="white"/>
</g>
<path d="M206.478 131.885H87.1215C86.3844 131.885 85.7869 132.434 85.7869 133.111V136.746C85.7869 137.423 86.3844 137.972 87.1215 137.972H206.478C207.215 137.972 207.813 137.423 207.813 136.746V133.111C207.813 132.434 207.215 131.885 206.478 131.885Z" fill="#132E25"/>
<path d="M149.308 122.223H175.663L177.55 102.474H151.189L149.308 122.223Z" fill="#132E25"/>
<path opacity="0.2" d="M151.886 122.223H175.696L177.395 104.383H153.591L151.886 122.223Z" fill="black"/>
<path d="M160.795 124.84H168.561V117.622H160.773L160.795 124.84Z" fill="#263238"/>
<path d="M160.773 117.622H168.561V110.272H160.773V117.622Z" fill="#263238"/>
<path opacity="0.1" d="M160.773 117.622H168.561V110.272H160.773V117.622Z" fill="white"/>
<path opacity="0.2" d="M167.618 110.272H161.872C161.438 110.272 161.084 110.41 161.084 110.582C161.084 110.754 161.438 110.892 161.872 110.892H167.618C168.047 110.892 168.401 110.754 168.401 110.582C168.401 110.41 168.047 110.272 167.618 110.272Z" fill="white"/>
<path d="M143.991 131.738H179.405V124.84H151.458L143.991 128.373V131.738Z" fill="#132E25"/>
<path opacity="0.2" d="M151.458 131.733H179.41V124.835H151.458V131.733Z" fill="black"/>
<path d="M171.654 106.385H174.806L175.985 93.9868H172.839L171.654 106.385Z" fill="#132E25"/>
<path opacity="0.2" d="M171.654 106.385H174.806L175.985 93.9868H172.839L171.654 106.385Z" fill="black"/>
<path d="M161.32 96.8748L183.827 96.6879L184.582 88.7765L162.076 88.9635L161.32 96.8748Z" fill="#132E25"/>
<path d="M162.826 95.3841H182.417L182.964 89.6572L163.351 89.854L162.826 95.3841Z" fill="#263238"/>
<path d="M184.582 88.7765L183.827 96.6878L185.188 95.9302L185.681 90.1738L184.582 88.7765Z" fill="#132E25"/>
<g opacity="0.2">
<path d="M184.582 88.7765L183.827 96.6878L185.188 95.9302L185.681 90.1738L184.582 88.7765Z" fill="black"/>
</g>
<path d="M89.8766 176.771C89.8766 176.771 108.878 154.631 88.3062 174.075C88.3062 174.075 92.2136 152.515 84.5971 174.931C84.5971 174.931 79.4514 154.09 81.3006 178.001C81.3006 178.001 71.8778 157.942 80.0143 182.704C80.0143 182.704 111.451 191.506 87.8399 182.591C87.8399 182.591 120.037 180.977 90.343 179.974C90.343 179.974 122.653 166.217 89.8766 176.771Z" fill="#132E25"/>
<path opacity="0.1" d="M89.8766 176.771C89.8766 176.771 108.878 154.631 88.3062 174.075C88.3062 174.075 92.2136 152.515 84.5971 174.931C84.5971 174.931 79.4514 154.09 81.3006 178.001C81.3006 178.001 71.8778 157.942 80.0143 182.704C80.0143 182.704 111.451 191.506 87.8399 182.591C87.8399 182.591 120.037 180.977 90.343 179.974C90.343 179.974 122.653 166.217 89.8766 176.771Z" fill="black"/>
<path d="M73.5499 191.728C73.5307 191.733 73.5102 191.733 73.491 191.728C73.4401 191.713 73.3975 191.68 73.3725 191.637C73.3474 191.594 73.3419 191.543 73.357 191.496C74.965 186.881 78.8617 183.024 81.8633 180.603C81.8818 180.586 81.9039 180.572 81.9283 180.563C81.9527 180.553 81.9789 180.548 82.0053 180.548C82.0318 180.548 82.058 180.553 82.0824 180.563C82.1068 180.572 82.1289 180.586 82.1474 180.603C82.1662 180.62 82.1811 180.64 82.1914 180.662C82.2016 180.684 82.2069 180.707 82.2069 180.731C82.2069 180.755 82.2016 180.779 82.1914 180.801C82.1811 180.823 82.1662 180.843 82.1474 180.859C79.1887 183.255 75.3295 187.054 73.7643 191.59C73.7519 191.632 73.7236 191.669 73.6844 191.694C73.6452 191.72 73.5976 191.731 73.5499 191.728Z" fill="#263238"/>
<path d="M60.568 189.42H82.3778C82.737 189.42 83.0264 189.853 83.0264 190.404C83.0264 190.955 82.737 191.388 82.3778 191.388H81.9062L80.4 199.752C80.0409 201.72 78.8349 203.117 77.452 203.117H65.4885C64.111 203.117 62.8996 201.735 62.5458 199.752L61.0343 191.388H60.568C60.2089 191.388 59.9194 190.955 59.9194 190.404C59.9194 189.853 60.2035 189.42 60.568 189.42Z" fill="#263238"/>
<path d="M77.4467 203.324H65.4885C64.0092 203.324 62.7174 201.873 62.3476 199.801L60.8629 191.56H60.5681C60.091 191.56 59.7158 191.068 59.7158 190.409C59.7158 189.75 60.091 189.258 60.5681 189.258H82.3779C82.8549 189.258 83.2301 189.75 83.2301 190.409C83.2301 191.068 82.8549 191.56 82.3779 191.56H82.0777L80.5984 199.801C80.2178 201.873 78.9261 203.324 77.4467 203.324ZM60.5681 189.627C60.359 189.627 60.1178 189.946 60.1178 190.409C60.1178 190.871 60.359 191.191 60.5681 191.191H61.0397C61.0869 191.192 61.1325 191.207 61.1687 191.235C61.2048 191.263 61.2294 191.301 61.2381 191.344L62.7442 199.752C63.0819 201.641 64.2129 202.965 65.4885 202.965H77.4467C78.7224 202.965 79.8533 201.641 80.1964 199.752L81.7025 191.354C81.7112 191.311 81.7358 191.273 81.7719 191.245C81.8081 191.217 81.8537 191.201 81.9009 191.201H82.3725C82.5869 191.201 82.8228 190.881 82.8228 190.419C82.8228 189.956 82.5869 189.637 82.3725 189.637L60.5681 189.627Z" fill="#263238"/>
<path d="M78.6205 170.488C78.6205 170.488 90.0856 138.842 75.694 168.072C75.694 168.072 70.6127 142.631 71.942 170.389C71.942 170.389 57.1002 149.086 69.6158 175.019C69.6158 175.019 50.3573 156.166 70.2429 180.731C70.2429 180.731 109.087 178.945 78.9046 177.725C78.9046 177.725 114.039 164.057 80.5501 173.888C80.5448 173.888 110.491 146.665 78.6205 170.488Z" fill="#132E25"/>
<path d="M65.6653 191.728H65.6171C65.5917 191.722 65.5678 191.712 65.5468 191.697C65.5258 191.683 65.508 191.665 65.4946 191.645C65.4811 191.624 65.4722 191.601 65.4684 191.577C65.4646 191.554 65.466 191.529 65.4724 191.506C68.2328 181.228 75.9351 171.192 76.0155 171.088C76.0305 171.068 76.0496 171.051 76.0718 171.038C76.094 171.025 76.1188 171.017 76.1447 171.012C76.1707 171.008 76.1973 171.009 76.2229 171.014C76.2486 171.02 76.2728 171.03 76.2942 171.044C76.316 171.058 76.3346 171.076 76.3488 171.097C76.3631 171.118 76.3727 171.141 76.3772 171.165C76.3817 171.189 76.3809 171.214 76.3749 171.238C76.369 171.262 76.3579 171.285 76.3424 171.305C76.262 171.403 68.6026 181.391 65.8583 191.595C65.8474 191.634 65.8223 191.668 65.7872 191.692C65.7521 191.716 65.7092 191.729 65.6653 191.728Z" fill="#263238"/>
<path d="M59.4961 171.969C59.4961 171.969 32.4656 152.427 56.205 173.588C56.205 173.588 29.8874 169.568 57.277 177.405C57.277 177.405 31.8331 182.694 61.029 180.79C61.029 180.79 36.5445 190.483 66.7749 182.119C66.7749 182.119 77.5217 149.78 66.6356 174.07C66.6356 174.07 64.6685 140.943 63.4464 171.492C63.4035 171.492 46.6321 138.252 59.4961 171.969Z" fill="#132E25"/>
<path opacity="0.3" d="M59.4961 171.969C59.4961 171.969 32.4656 152.427 56.205 173.588C56.205 173.588 29.8874 169.568 57.277 177.405C57.277 177.405 31.8331 182.694 61.029 180.79C61.029 180.79 36.5445 190.483 66.7749 182.119C66.7749 182.119 77.5217 149.78 66.6356 174.07C66.6356 174.07 64.6685 140.943 63.4464 171.492C63.4035 171.492 46.6321 138.252 59.4961 171.969Z" fill="white"/>
<path d="M72.2421 193.149C72.1987 193.149 72.1566 193.136 72.1219 193.112C72.0872 193.088 72.0617 193.055 72.0492 193.017C67.2788 178.385 58.8153 174.645 58.7349 174.611C58.687 174.59 58.6497 174.552 58.6308 174.506C58.6119 174.461 58.6127 174.41 58.6331 174.365C58.6563 174.321 58.6973 174.287 58.7474 174.27C58.7975 174.254 58.8527 174.256 58.9011 174.276C58.9868 174.311 67.6057 178.104 72.4351 192.908C72.4502 192.955 72.4446 193.006 72.4196 193.049C72.3945 193.092 72.352 193.125 72.3011 193.14L72.2421 193.149Z" fill="#263238"/>
</svg>
