<svg width="38" height="40" viewBox="0 0 38 40" fill="none" xmlns="http://www.w3.org/2000/svg">
<path d="M29.2335 40H8.76651C3.92372 40 0 35.8466 0 30.7434V16.9423C0 14.4093 1.48465 11.2244 3.39349 9.65989L12.92 1.83741C15.7833 -0.509323 20.3609 -0.621072 23.3302 1.57666L34.253 9.64127C36.3563 11.1871 38 14.5024 38 17.2031V30.762C38 35.8466 34.0763 40 29.2335 40ZM14.546 4.03516L5.01954 11.8576C3.76465 12.9006 2.65116 15.266 2.65116 16.9423V30.7434C2.65116 34.3008 5.3907 37.2063 8.76651 37.2063H29.2335C32.6093 37.2063 35.3488 34.3194 35.3488 30.762V17.2031C35.3488 15.415 34.1293 12.9379 32.733 11.9321L21.8102 3.86753C19.7953 2.37754 16.4726 2.45204 14.546 4.03516Z" fill="white"/>
<path d="M19.0001 32.5499C18.2755 32.5499 17.6746 31.9167 17.6746 31.1531V25.5656C17.6746 24.8019 18.2755 24.1687 19.0001 24.1687C19.7248 24.1687 20.3257 24.8019 20.3257 25.5656V31.1531C20.3257 31.9167 19.7248 32.5499 19.0001 32.5499Z" fill="white"/>
</svg>
