<svg width="101" height="61" viewBox="0 0 101 61" fill="none" xmlns="http://www.w3.org/2000/svg">
        <ellipse cx="35" cy="49.9634" rx="6.28351" ry="9.24752" transform="rotate(45.5 35 49.9634)" fill="white"/>
        <ellipse cx="75" cy="49.9634" rx="6.28351" ry="9.24752" transform="rotate(45.5 75 49.9634)" fill="white"/>
        <path d="M0 2.33333C0 1.04467 1.04467 0 2.33333 0H67.6637C71.1879 0 73.6061 3.54815 72.3175 6.82826L69.5 14H11.6667C5.22335 14 0 8.77666 0 2.33333Z" fill="white"/>
        <path d="M7 20.1667C7 18.97 7.97005 18 9.16667 18H68L63.6006 31H17.8333C11.8502 31 7 26.1498 7 20.1667Z" fill="white"/>
        <path fill-rule="evenodd" clip-rule="evenodd" d="M16.1667 35C14.97 35 14 35.97 14 37.1667C14 43.1498 18.8502 48 24.8333 48H25.1646C25.4935 44.6747 29.0611 41.5805 33.8481 40.7364C39.287 39.7774 44.2404 42.0863 44.9117 45.8936C45.0363 46.6001 45.0046 47.3085 44.8357 48H57L61.5 35H16.1667Z" fill="white"/>
        <path d="M74 13L61 47.5H66C78 33.5 84.6667 41.6667 86.5 47.5C94.9 49.9 97.3333 39.8333 97.5 34.5C82.7 34.9 82.6667 26 84.5 21.5H100.5C100.9 15.9 94.6667 13.5 91.5 13H74Z" fill="white"/>
        </svg>
